<svg xmlns="http://www.w3.org/2000/svg" xmlns:xlink="http://www.w3.org/1999/xlink" width="442" zoomAndPan="magnify" viewBox="0 0 331.5 157.5" height="210" preserveAspectRatio="xMidYMid meet" version="1.0"><defs><g/><clipPath id="a2dda4ae7b"><path d="M 19 26 L 134.101562 26 L 134.101562 157 L 19 157 Z M 19 26 " clip-rule="nonzero"/></clipPath><clipPath id="1086eab3e0"><path d="M 0.273438 32 L 34 32 L 34 157 L 0.273438 157 Z M 0.273438 32 " clip-rule="nonzero"/></clipPath></defs><g clip-path="url(#a2dda4ae7b)"><path fill="#eb690a" d="M 134.308594 122.6875 C 126.714844 125.894531 119.078125 128.984375 111.4375 132.054688 L 99.957031 136.601562 C 98.039062 137.351562 96.144531 138.164062 94.179688 138.757812 C 92.214844 139.363281 90.242188 139.941406 88.296875 140.59375 L 41.414062 155.824219 L 38.253906 156.851562 L 37.757812 153.566406 L 19.707031 34.175781 L 19.25 31.148438 L 22.304688 30.945312 L 70.992188 27.652344 L 77.078125 27.230469 C 79.105469 27.054688 81.128906 26.839844 83.167969 26.894531 L 95.398438 26.90625 C 103.550781 26.925781 111.707031 27.015625 119.871094 27.175781 C 111.804688 28.429688 103.730469 29.617188 95.65625 30.734375 L 83.539062 32.390625 C 81.523438 32.714844 79.488281 32.777344 77.457031 32.875 L 71.371094 33.273438 L 22.683594 36.566406 L 25.28125 33.332031 L 43.328125 152.722656 L 39.671875 150.464844 L 86.554688 135.234375 C 88.515625 134.617188 90.449219 133.925781 92.394531 133.265625 C 94.332031 132.589844 96.347656 132.132812 98.335938 131.613281 L 110.296875 128.546875 C 118.285156 126.539062 126.277344 124.554688 134.308594 122.6875 " fill-opacity="1" fill-rule="nonzero"/></g><path fill="#eb690a" d="M 48.339844 53.171875 L 44.878906 30.273438 C 43.835938 23.394531 45.558594 16.617188 49.722656 11.195312 C 53.890625 5.765625 60 2.351562 66.925781 1.578125 C 81.109375 -0.00390625 94.390625 10.183594 96.523438 24.289062 L 99.988281 47.191406 L 94.414062 48.035156 L 90.953125 25.132812 C 89.265625 13.980469 78.78125 5.921875 67.550781 7.175781 C 62.164062 7.78125 57.417969 10.425781 54.191406 14.625 C 50.96875 18.820312 49.640625 24.082031 50.449219 29.429688 L 53.910156 52.332031 L 48.339844 53.171875 " fill-opacity="1" fill-rule="nonzero"/><path fill="#eb690a" d="M 89.921875 48.425781 C 90.527344 52.421875 94.273438 55.296875 98.292969 54.847656 C 102.3125 54.398438 105.082031 50.796875 104.476562 46.800781 C 103.875 42.804688 100.125 39.929688 96.105469 40.378906 C 92.085938 40.828125 89.320312 44.429688 89.921875 48.425781 " fill-opacity="1" fill-rule="nonzero"/><path fill="#eb690a" d="M 43.847656 53.5625 C 44.453125 57.558594 48.199219 60.433594 52.21875 59.988281 C 56.238281 59.539062 59.007812 55.9375 58.402344 51.941406 C 57.796875 47.945312 54.050781 45.070312 50.03125 45.519531 C 46.011719 45.96875 43.246094 49.570312 43.847656 53.5625 " fill-opacity="1" fill-rule="nonzero"/><g clip-path="url(#1086eab3e0)"><path fill="#eb690a" d="M 14.546875 32.9375 C 14.796875 35.386719 14.992188 37.835938 15.152344 40.277344 C 15.339844 42.722656 15.449219 45.164062 15.574219 47.601562 C 15.617188 48.820312 15.742188 50.046875 15.71875 51.261719 C 15.695312 51.863281 15.570312 52.460938 15.496094 53.0625 C 15.414062 53.660156 15.363281 54.261719 15.308594 54.863281 L 14.625 62.085938 L 11.898438 90.972656 L 6.449219 148.742188 L 2.246094 146.03125 C 2.714844 145.773438 3.027344 145.625 3.410156 145.445312 C 3.777344 145.273438 4.144531 145.113281 4.511719 144.964844 C 5.246094 144.660156 5.984375 144.394531 6.738281 144.15625 C 8.242188 143.691406 9.769531 143.292969 11.339844 143.011719 C 12.917969 142.789062 14.539062 142.929688 16.121094 143.113281 C 17.707031 143.324219 19.265625 143.691406 20.757812 144.207031 C 23.753906 145.238281 26.421875 146.972656 28.574219 149.066406 C 30.738281 151.164062 32.421875 153.609375 33.71875 156.179688 C 31.777344 154.046875 29.59375 152.203125 27.246094 150.792969 C 24.886719 149.394531 22.328125 148.53125 19.777344 148.203125 C 18.492188 148.046875 17.210938 148.027344 15.941406 148.132812 C 14.667969 148.210938 13.429688 148.523438 12.183594 148.71875 C 10.925781 148.855469 9.667969 149.121094 8.453125 149.523438 C 7.84375 149.71875 7.238281 149.933594 6.652344 150.175781 C 6.359375 150.296875 6.070312 150.421875 5.789062 150.554688 C 5.527344 150.675781 5.195312 150.839844 5.042969 150.925781 L 0.339844 153.515625 L 0.839844 148.214844 L 6.289062 90.441406 L 9.015625 61.554688 L 9.699219 54.335938 C 9.753906 53.734375 9.816406 53.132812 9.847656 52.527344 C 9.890625 51.925781 9.878906 51.316406 9.96875 50.71875 C 10.171875 49.523438 10.523438 48.339844 10.792969 47.152344 C 11.375 44.777344 11.933594 42.402344 12.578125 40.035156 C 13.191406 37.664062 13.84375 35.296875 14.546875 32.9375 " fill-opacity="1" fill-rule="nonzero"/></g><g fill="#000000" fill-opacity="1"><g transform="translate(47.900834, 96.35138)"><g><path d="M 26.78125 -21.359375 C 26.78125 -19.523438 26.359375 -17.851562 25.515625 -16.34375 C 24.679688 -14.832031 23.394531 -13.613281 21.65625 -12.6875 C 19.925781 -11.757812 17.773438 -11.296875 15.203125 -11.296875 L 10.453125 -11.296875 L 10.453125 0 L 2.78125 0 L 2.78125 -31.484375 L 15.203125 -31.484375 C 17.710938 -31.484375 19.832031 -31.050781 21.5625 -30.1875 C 23.300781 -29.320312 24.601562 -28.125 25.46875 -26.59375 C 26.34375 -25.070312 26.78125 -23.328125 26.78125 -21.359375 Z M 14.625 -17.40625 C 16.09375 -17.40625 17.179688 -17.75 17.890625 -18.4375 C 18.609375 -19.125 18.96875 -20.097656 18.96875 -21.359375 C 18.96875 -22.609375 18.609375 -23.578125 17.890625 -24.265625 C 17.179688 -24.953125 16.09375 -25.296875 14.625 -25.296875 L 10.453125 -25.296875 L 10.453125 -17.40625 Z M 14.625 -17.40625 "/></g></g></g><g fill="#000000" fill-opacity="1"><g transform="translate(73.693929, 96.35138)"><g><path d="M 1.25 -12.5625 C 1.25 -15.132812 1.734375 -17.390625 2.703125 -19.328125 C 3.679688 -21.273438 5.007812 -22.769531 6.6875 -23.8125 C 8.363281 -24.863281 10.234375 -25.390625 12.296875 -25.390625 C 14.054688 -25.390625 15.601562 -25.03125 16.9375 -24.3125 C 18.269531 -23.59375 19.289062 -22.648438 20 -21.484375 L 20 -25.03125 L 27.671875 -25.03125 L 27.671875 0 L 20 0 L 20 -3.546875 C 19.257812 -2.378906 18.222656 -1.4375 16.890625 -0.71875 C 15.554688 0 14.007812 0.359375 12.25 0.359375 C 10.21875 0.359375 8.363281 -0.171875 6.6875 -1.234375 C 5.007812 -2.296875 3.679688 -3.804688 2.703125 -5.765625 C 1.734375 -7.722656 1.25 -9.988281 1.25 -12.5625 Z M 20 -12.515625 C 20 -14.429688 19.46875 -15.941406 18.40625 -17.046875 C 17.351562 -18.148438 16.0625 -18.703125 14.53125 -18.703125 C 13.007812 -18.703125 11.71875 -18.15625 10.65625 -17.0625 C 9.59375 -15.976562 9.0625 -14.476562 9.0625 -12.5625 C 9.0625 -10.644531 9.59375 -9.125 10.65625 -8 C 11.71875 -6.882812 13.007812 -6.328125 14.53125 -6.328125 C 16.0625 -6.328125 17.351562 -6.878906 18.40625 -7.984375 C 19.46875 -9.085938 20 -10.597656 20 -12.515625 Z M 20 -12.515625 "/></g></g></g><g fill="#000000" fill-opacity="1"><g transform="translate(101.954184, 96.35138)"><g><path d="M 10.453125 -20.859375 C 11.347656 -22.234375 12.46875 -23.316406 13.8125 -24.109375 C 15.15625 -24.898438 16.648438 -25.296875 18.296875 -25.296875 L 18.296875 -17.1875 L 16.1875 -17.1875 C 14.28125 -17.1875 12.847656 -16.773438 11.890625 -15.953125 C 10.929688 -15.128906 10.453125 -13.6875 10.453125 -11.625 L 10.453125 0 L 2.78125 0 L 2.78125 -25.03125 L 10.453125 -25.03125 Z M 10.453125 -20.859375 "/></g></g></g><g fill="#000000" fill-opacity="1"><g transform="translate(118.955193, 96.35138)"><g><path d="M 16.734375 -6.5 L 16.734375 0 L 12.828125 0 C 10.046875 0 7.878906 -0.675781 6.328125 -2.03125 C 4.773438 -3.394531 4 -5.617188 4 -8.703125 L 4 -18.65625 L 0.9375 -18.65625 L 0.9375 -25.03125 L 4 -25.03125 L 4 -31.125 L 11.65625 -31.125 L 11.65625 -25.03125 L 16.6875 -25.03125 L 16.6875 -18.65625 L 11.65625 -18.65625 L 11.65625 -8.609375 C 11.65625 -7.859375 11.832031 -7.316406 12.1875 -6.984375 C 12.550781 -6.660156 13.15625 -6.5 14 -6.5 Z M 16.734375 -6.5 "/></g></g></g><g fill="#000000" fill-opacity="1"><g transform="translate(134.96933, 96.35138)"><g><path d="M 6.640625 -27.640625 C 5.296875 -27.640625 4.195312 -28.035156 3.34375 -28.828125 C 2.488281 -29.617188 2.0625 -30.597656 2.0625 -31.765625 C 2.0625 -32.960938 2.488281 -33.957031 3.34375 -34.75 C 4.195312 -35.539062 5.296875 -35.9375 6.640625 -35.9375 C 7.953125 -35.9375 9.035156 -35.539062 9.890625 -34.75 C 10.742188 -33.957031 11.171875 -32.960938 11.171875 -31.765625 C 11.171875 -30.597656 10.742188 -29.617188 9.890625 -28.828125 C 9.035156 -28.035156 7.953125 -27.640625 6.640625 -27.640625 Z M 10.453125 -25.03125 L 10.453125 0 L 2.78125 0 L 2.78125 -25.03125 Z M 10.453125 -25.03125 "/></g></g></g><g fill="#000000" fill-opacity="1"><g transform="translate(146.004288, 96.35138)"><g><path d="M 27.5 -25.03125 L 27.5 0 L 19.828125 0 L 19.828125 -3.40625 C 19.046875 -2.300781 17.988281 -1.410156 16.65625 -0.734375 C 15.332031 -0.0664062 13.863281 0.265625 12.25 0.265625 C 10.332031 0.265625 8.640625 -0.15625 7.171875 -1 C 5.710938 -1.851562 4.578125 -3.085938 3.765625 -4.703125 C 2.960938 -6.316406 2.5625 -8.21875 2.5625 -10.40625 L 2.5625 -25.03125 L 10.1875 -25.03125 L 10.1875 -11.4375 C 10.1875 -9.757812 10.617188 -8.457031 11.484375 -7.53125 C 12.347656 -6.601562 13.515625 -6.140625 14.984375 -6.140625 C 16.472656 -6.140625 17.648438 -6.601562 18.515625 -7.53125 C 19.390625 -8.457031 19.828125 -9.757812 19.828125 -11.4375 L 19.828125 -25.03125 Z M 27.5 -25.03125 "/></g></g></g><g fill="#000000" fill-opacity="1"><g transform="translate(174.040249, 96.35138)"><g/></g></g><g fill="#eb690a" fill-opacity="1"><g transform="translate(181.352173, 96.35138)"><g><path d="M 13.09375 0.3125 C 11.03125 0.3125 9.210938 -0.046875 7.640625 -0.765625 C 6.078125 -1.484375 4.847656 -2.484375 3.953125 -3.765625 C 3.054688 -5.054688 2.578125 -6.492188 2.515625 -8.078125 L 5.828125 -8.078125 C 5.984375 -6.546875 6.65625 -5.203125 7.84375 -4.046875 C 9.039062 -2.898438 10.789062 -2.328125 13.09375 -2.328125 C 15.21875 -2.328125 16.898438 -2.875 18.140625 -3.96875 C 19.378906 -5.0625 20 -6.445312 20 -8.125 C 20 -9.46875 19.65625 -10.550781 18.96875 -11.375 C 18.28125 -12.195312 17.425781 -12.804688 16.40625 -13.203125 C 15.394531 -13.609375 13.992188 -14.050781 12.203125 -14.53125 C 10.109375 -15.101562 8.445312 -15.65625 7.21875 -16.1875 C 6 -16.726562 4.953125 -17.566406 4.078125 -18.703125 C 3.210938 -19.835938 2.78125 -21.378906 2.78125 -23.328125 C 2.78125 -24.941406 3.195312 -26.382812 4.03125 -27.65625 C 4.875 -28.925781 6.054688 -29.921875 7.578125 -30.640625 C 9.109375 -31.359375 10.859375 -31.71875 12.828125 -31.71875 C 15.734375 -31.71875 18.070312 -31.003906 19.84375 -29.578125 C 21.625 -28.160156 22.648438 -26.332031 22.921875 -24.09375 L 19.515625 -24.09375 C 19.304688 -25.375 18.601562 -26.515625 17.40625 -27.515625 C 16.207031 -28.523438 14.59375 -29.03125 12.5625 -29.03125 C 10.675781 -29.03125 9.101562 -28.523438 7.84375 -27.515625 C 6.59375 -26.515625 5.96875 -25.148438 5.96875 -23.421875 C 5.96875 -22.097656 6.3125 -21.03125 7 -20.21875 C 7.6875 -19.414062 8.546875 -18.804688 9.578125 -18.390625 C 10.609375 -17.972656 12.003906 -17.523438 13.765625 -17.046875 C 15.804688 -16.472656 17.453125 -15.910156 18.703125 -15.359375 C 19.960938 -14.804688 21.023438 -13.960938 21.890625 -12.828125 C 22.753906 -11.691406 23.1875 -10.164062 23.1875 -8.25 C 23.1875 -6.789062 22.796875 -5.398438 22.015625 -4.078125 C 21.242188 -2.765625 20.09375 -1.703125 18.5625 -0.890625 C 17.039062 -0.0859375 15.21875 0.3125 13.09375 0.3125 Z M 13.09375 0.3125 "/></g></g></g><g fill="#eb690a" fill-opacity="1"><g transform="translate(204.812665, 96.35138)"><g><path d="M 2.15625 -12.296875 C 2.15625 -14.804688 2.65625 -17.007812 3.65625 -18.90625 C 4.65625 -20.800781 6.046875 -22.265625 7.828125 -23.296875 C 9.609375 -24.335938 11.617188 -24.859375 13.859375 -24.859375 C 16.191406 -24.859375 18.203125 -24.316406 19.890625 -23.234375 C 21.585938 -22.160156 22.804688 -20.785156 23.546875 -19.109375 L 23.546875 -24.5 L 26.6875 -24.5 L 26.6875 0 L 23.546875 0 L 23.546875 -5.421875 C 22.773438 -3.753906 21.539062 -2.375 19.84375 -1.28125 C 18.15625 -0.1875 16.144531 0.359375 13.8125 0.359375 C 11.601562 0.359375 9.609375 -0.160156 7.828125 -1.203125 C 6.046875 -2.253906 4.65625 -3.734375 3.65625 -5.640625 C 2.65625 -7.554688 2.15625 -9.773438 2.15625 -12.296875 Z M 23.546875 -12.25 C 23.546875 -14.21875 23.140625 -15.945312 22.328125 -17.4375 C 21.523438 -18.9375 20.425781 -20.085938 19.03125 -20.890625 C 17.644531 -21.703125 16.113281 -22.109375 14.4375 -22.109375 C 12.707031 -22.109375 11.15625 -21.71875 9.78125 -20.9375 C 8.40625 -20.164062 7.320312 -19.039062 6.53125 -17.5625 C 5.738281 -16.082031 5.34375 -14.328125 5.34375 -12.296875 C 5.34375 -10.285156 5.738281 -8.523438 6.53125 -7.015625 C 7.320312 -5.503906 8.40625 -4.351562 9.78125 -3.5625 C 11.15625 -2.769531 12.707031 -2.375 14.4375 -2.375 C 16.113281 -2.375 17.644531 -2.773438 19.03125 -3.578125 C 20.425781 -4.390625 21.523438 -5.539062 22.328125 -7.03125 C 23.140625 -8.53125 23.546875 -10.269531 23.546875 -12.25 Z M 23.546875 -12.25 "/></g></g></g><g fill="#eb690a" fill-opacity="1"><g transform="translate(232.893488, 96.35138)"><g><path d="M 2.15625 -12.296875 C 2.15625 -14.804688 2.65625 -17.007812 3.65625 -18.90625 C 4.65625 -20.800781 6.046875 -22.265625 7.828125 -23.296875 C 9.609375 -24.335938 11.617188 -24.859375 13.859375 -24.859375 C 16.191406 -24.859375 18.203125 -24.316406 19.890625 -23.234375 C 21.585938 -22.160156 22.804688 -20.785156 23.546875 -19.109375 L 23.546875 -24.5 L 26.6875 -24.5 L 26.6875 0 L 23.546875 0 L 23.546875 -5.421875 C 22.773438 -3.753906 21.539062 -2.375 19.84375 -1.28125 C 18.15625 -0.1875 16.144531 0.359375 13.8125 0.359375 C 11.601562 0.359375 9.609375 -0.160156 7.828125 -1.203125 C 6.046875 -2.253906 4.65625 -3.734375 3.65625 -5.640625 C 2.65625 -7.554688 2.15625 -9.773438 2.15625 -12.296875 Z M 23.546875 -12.25 C 23.546875 -14.21875 23.140625 -15.945312 22.328125 -17.4375 C 21.523438 -18.9375 20.425781 -20.085938 19.03125 -20.890625 C 17.644531 -21.703125 16.113281 -22.109375 14.4375 -22.109375 C 12.707031 -22.109375 11.15625 -21.71875 9.78125 -20.9375 C 8.40625 -20.164062 7.320312 -19.039062 6.53125 -17.5625 C 5.738281 -16.082031 5.34375 -14.328125 5.34375 -12.296875 C 5.34375 -10.285156 5.738281 -8.523438 6.53125 -7.015625 C 7.320312 -5.503906 8.40625 -4.351562 9.78125 -3.5625 C 11.15625 -2.769531 12.707031 -2.375 14.4375 -2.375 C 16.113281 -2.375 17.644531 -2.773438 19.03125 -3.578125 C 20.425781 -4.390625 21.523438 -5.539062 22.328125 -7.03125 C 23.140625 -8.53125 23.546875 -10.269531 23.546875 -12.25 Z M 23.546875 -12.25 "/></g></g></g><g fill="#eb690a" fill-opacity="1"><g transform="translate(260.97431, 96.35138)"><g><path d="M 6.734375 -20.140625 C 7.421875 -21.671875 8.472656 -22.851562 9.890625 -23.6875 C 11.304688 -24.519531 13.050781 -24.9375 15.125 -24.9375 L 15.125 -21.671875 L 14.265625 -21.671875 C 11.992188 -21.671875 10.171875 -21.054688 8.796875 -19.828125 C 7.421875 -18.597656 6.734375 -16.550781 6.734375 -13.6875 L 6.734375 0 L 3.59375 0 L 3.59375 -24.5 L 6.734375 -24.5 Z M 6.734375 -20.140625 "/></g></g></g><g fill="#eb690a" fill-opacity="1"><g transform="translate(275.014725, 96.35138)"><g><path d="M 2.15625 -12.296875 C 2.15625 -14.804688 2.65625 -17.007812 3.65625 -18.90625 C 4.65625 -20.800781 6.046875 -22.265625 7.828125 -23.296875 C 9.609375 -24.335938 11.617188 -24.859375 13.859375 -24.859375 C 16.191406 -24.859375 18.203125 -24.316406 19.890625 -23.234375 C 21.585938 -22.160156 22.804688 -20.785156 23.546875 -19.109375 L 23.546875 -24.5 L 26.6875 -24.5 L 26.6875 0 L 23.546875 0 L 23.546875 -5.421875 C 22.773438 -3.753906 21.539062 -2.375 19.84375 -1.28125 C 18.15625 -0.1875 16.144531 0.359375 13.8125 0.359375 C 11.601562 0.359375 9.609375 -0.160156 7.828125 -1.203125 C 6.046875 -2.253906 4.65625 -3.734375 3.65625 -5.640625 C 2.65625 -7.554688 2.15625 -9.773438 2.15625 -12.296875 Z M 23.546875 -12.25 C 23.546875 -14.21875 23.140625 -15.945312 22.328125 -17.4375 C 21.523438 -18.9375 20.425781 -20.085938 19.03125 -20.890625 C 17.644531 -21.703125 16.113281 -22.109375 14.4375 -22.109375 C 12.707031 -22.109375 11.15625 -21.71875 9.78125 -20.9375 C 8.40625 -20.164062 7.320312 -19.039062 6.53125 -17.5625 C 5.738281 -16.082031 5.34375 -14.328125 5.34375 -12.296875 C 5.34375 -10.285156 5.738281 -8.523438 6.53125 -7.015625 C 7.320312 -5.503906 8.40625 -4.351562 9.78125 -3.5625 C 11.15625 -2.769531 12.707031 -2.375 14.4375 -2.375 C 16.113281 -2.375 17.644531 -2.773438 19.03125 -3.578125 C 20.425781 -4.390625 21.523438 -5.539062 22.328125 -7.03125 C 23.140625 -8.53125 23.546875 -10.269531 23.546875 -12.25 Z M 23.546875 -12.25 "/></g></g></g><g fill="#111b1e" fill-opacity="1"><g transform="translate(47.900834, 115.6247)"><g><path d="M 0.3125 -3.296875 C 0.3125 -3.953125 0.453125 -4.53125 0.734375 -5.03125 C 1.015625 -5.539062 1.40625 -5.9375 1.90625 -6.21875 C 2.40625 -6.507812 2.976562 -6.65625 3.625 -6.65625 C 4.40625 -6.65625 5.070312 -6.445312 5.625 -6.03125 C 6.175781 -5.625 6.546875 -5.0625 6.734375 -4.34375 L 4.984375 -4.34375 C 4.847656 -4.625 4.660156 -4.832031 4.421875 -4.96875 C 4.179688 -5.113281 3.90625 -5.1875 3.59375 -5.1875 C 3.101562 -5.1875 2.703125 -5.015625 2.390625 -4.671875 C 2.085938 -4.328125 1.9375 -3.867188 1.9375 -3.296875 C 1.9375 -2.722656 2.085938 -2.265625 2.390625 -1.921875 C 2.703125 -1.578125 3.101562 -1.40625 3.59375 -1.40625 C 3.90625 -1.40625 4.179688 -1.476562 4.421875 -1.625 C 4.660156 -1.769531 4.847656 -1.976562 4.984375 -2.25 L 6.734375 -2.25 C 6.546875 -1.539062 6.175781 -0.976562 5.625 -0.5625 C 5.070312 -0.15625 4.40625 0.046875 3.625 0.046875 C 2.976562 0.046875 2.40625 -0.09375 1.90625 -0.375 C 1.40625 -0.664062 1.015625 -1.0625 0.734375 -1.5625 C 0.453125 -2.070312 0.3125 -2.648438 0.3125 -3.296875 Z M 0.3125 -3.296875 "/></g></g></g><g fill="#111b1e" fill-opacity="1"><g transform="translate(58.151122, 115.6247)"><g><path d="M 2.1875 -5.296875 L 2.1875 -3.96875 L 4.328125 -3.96875 L 4.328125 -2.734375 L 2.1875 -2.734375 L 2.1875 -1.28125 L 4.609375 -1.28125 L 4.609375 0 L 0.578125 0 L 0.578125 -6.578125 L 4.609375 -6.578125 L 4.609375 -5.296875 Z M 2.1875 -5.296875 "/></g></g></g><g fill="#111b1e" fill-opacity="1"><g transform="translate(66.333517, 115.6247)"><g><path d="M 6.46875 0 L 4.859375 0 L 2.1875 -4.0625 L 2.1875 0 L 0.578125 0 L 0.578125 -6.578125 L 2.1875 -6.578125 L 4.859375 -2.5 L 4.859375 -6.578125 L 6.46875 -6.578125 Z M 6.46875 0 "/></g></g></g><g fill="#111b1e" fill-opacity="1"><g transform="translate(76.490237, 115.6247)"><g><path d="M 5.3125 -6.578125 L 5.3125 -5.296875 L 3.578125 -5.296875 L 3.578125 0 L 1.96875 0 L 1.96875 -5.296875 L 0.21875 -5.296875 L 0.21875 -6.578125 Z M 5.3125 -6.578125 "/></g></g></g><g fill="#111b1e" fill-opacity="1"><g transform="translate(85.140481, 115.6247)"><g><path d="M 2.1875 -5.296875 L 2.1875 -3.96875 L 4.328125 -3.96875 L 4.328125 -2.734375 L 2.1875 -2.734375 L 2.1875 -1.28125 L 4.609375 -1.28125 L 4.609375 0 L 0.578125 0 L 0.578125 -6.578125 L 4.609375 -6.578125 L 4.609375 -5.296875 Z M 2.1875 -5.296875 "/></g></g></g><g fill="#111b1e" fill-opacity="1"><g transform="translate(93.322877, 115.6247)"><g><path d="M 6.46875 0 L 4.859375 0 L 2.1875 -4.0625 L 2.1875 0 L 0.578125 0 L 0.578125 -6.578125 L 2.1875 -6.578125 L 4.859375 -2.5 L 4.859375 -6.578125 L 6.46875 -6.578125 Z M 6.46875 0 "/></g></g></g><g fill="#111b1e" fill-opacity="1"><g transform="translate(103.4796, 115.6247)"><g><path d="M 4.671875 -1.15625 L 2.21875 -1.15625 L 1.828125 0 L 0.15625 0 L 2.53125 -6.578125 L 4.390625 -6.578125 L 6.765625 0 L 5.078125 0 Z M 4.265625 -2.40625 L 3.453125 -4.8125 L 2.640625 -2.40625 Z M 4.265625 -2.40625 "/></g></g></g><g fill="#111b1e" fill-opacity="1"><g transform="translate(113.49596, 115.6247)"><g><path d="M 2.96875 0.0625 C 2.476562 0.0625 2.039062 -0.015625 1.65625 -0.171875 C 1.28125 -0.328125 0.976562 -0.554688 0.75 -0.859375 C 0.519531 -1.171875 0.398438 -1.539062 0.390625 -1.96875 L 2.09375 -1.96875 C 2.125 -1.726562 2.207031 -1.539062 2.34375 -1.40625 C 2.488281 -1.28125 2.679688 -1.21875 2.921875 -1.21875 C 3.148438 -1.21875 3.332031 -1.269531 3.46875 -1.375 C 3.613281 -1.488281 3.6875 -1.644531 3.6875 -1.84375 C 3.6875 -2 3.628906 -2.128906 3.515625 -2.234375 C 3.410156 -2.347656 3.273438 -2.4375 3.109375 -2.5 C 2.953125 -2.570312 2.726562 -2.648438 2.4375 -2.734375 C 2.007812 -2.867188 1.660156 -3 1.390625 -3.125 C 1.128906 -3.257812 0.898438 -3.453125 0.703125 -3.703125 C 0.503906 -3.960938 0.40625 -4.300781 0.40625 -4.71875 C 0.40625 -5.332031 0.628906 -5.8125 1.078125 -6.15625 C 1.523438 -6.5 2.101562 -6.671875 2.8125 -6.671875 C 3.539062 -6.671875 4.125 -6.5 4.5625 -6.15625 C 5.007812 -5.8125 5.25 -5.328125 5.28125 -4.703125 L 3.546875 -4.703125 C 3.535156 -4.921875 3.457031 -5.085938 3.3125 -5.203125 C 3.164062 -5.328125 2.976562 -5.390625 2.75 -5.390625 C 2.5625 -5.390625 2.40625 -5.335938 2.28125 -5.234375 C 2.164062 -5.128906 2.109375 -4.984375 2.109375 -4.796875 C 2.109375 -4.578125 2.207031 -4.40625 2.40625 -4.28125 C 2.601562 -4.164062 2.914062 -4.039062 3.34375 -3.90625 C 3.769531 -3.757812 4.113281 -3.617188 4.375 -3.484375 C 4.644531 -3.359375 4.875 -3.171875 5.0625 -2.921875 C 5.257812 -2.671875 5.359375 -2.347656 5.359375 -1.953125 C 5.359375 -1.578125 5.265625 -1.238281 5.078125 -0.9375 C 4.890625 -0.632812 4.613281 -0.390625 4.25 -0.203125 C 3.882812 -0.0234375 3.457031 0.0625 2.96875 0.0625 Z M 2.96875 0.0625 "/></g></g></g><g fill="#111b1e" fill-opacity="1"><g transform="translate(122.37078, 115.6247)"><g/></g></g><g fill="#111b1e" fill-opacity="1"><g transform="translate(127.474738, 115.6247)"><g><path d="M 3.046875 -6.578125 C 3.742188 -6.578125 4.347656 -6.4375 4.859375 -6.15625 C 5.378906 -5.882812 5.78125 -5.5 6.0625 -5 C 6.351562 -4.507812 6.5 -3.941406 6.5 -3.296875 C 6.5 -2.648438 6.351562 -2.078125 6.0625 -1.578125 C 5.78125 -1.078125 5.378906 -0.6875 4.859375 -0.40625 C 4.335938 -0.132812 3.734375 0 3.046875 0 L 0.578125 0 L 0.578125 -6.578125 Z M 2.9375 -1.390625 C 3.550781 -1.390625 4.023438 -1.550781 4.359375 -1.875 C 4.691406 -2.207031 4.859375 -2.679688 4.859375 -3.296875 C 4.859375 -3.898438 4.691406 -4.367188 4.359375 -4.703125 C 4.023438 -5.046875 3.550781 -5.21875 2.9375 -5.21875 L 2.1875 -5.21875 L 2.1875 -1.390625 Z M 2.9375 -1.390625 "/></g></g></g><g fill="#111b1e" fill-opacity="1"><g transform="translate(137.39753, 115.6247)"><g><path d="M 2.1875 -5.296875 L 2.1875 -3.96875 L 4.328125 -3.96875 L 4.328125 -2.734375 L 2.1875 -2.734375 L 2.1875 -1.28125 L 4.609375 -1.28125 L 4.609375 0 L 0.578125 0 L 0.578125 -6.578125 L 4.609375 -6.578125 L 4.609375 -5.296875 Z M 2.1875 -5.296875 "/></g></g></g><g fill="#111b1e" fill-opacity="1"><g transform="translate(145.579926, 115.6247)"><g/></g></g><g fill="#111b1e" fill-opacity="1"><g transform="translate(150.683879, 115.6247)"><g><path d="M 2.1875 -1.234375 L 4.28125 -1.234375 L 4.28125 0 L 0.578125 0 L 0.578125 -6.578125 L 2.1875 -6.578125 Z M 2.1875 -1.234375 "/></g></g></g><g fill="#111b1e" fill-opacity="1"><g transform="translate(158.267424, 115.6247)"><g><path d="M 3.6875 0.0625 C 3.070312 0.0625 2.503906 -0.078125 1.984375 -0.359375 C 1.472656 -0.648438 1.066406 -1.050781 0.765625 -1.5625 C 0.460938 -2.082031 0.3125 -2.664062 0.3125 -3.3125 C 0.3125 -3.957031 0.460938 -4.535156 0.765625 -5.046875 C 1.066406 -5.554688 1.472656 -5.953125 1.984375 -6.234375 C 2.503906 -6.523438 3.070312 -6.671875 3.6875 -6.671875 C 4.3125 -6.671875 4.878906 -6.523438 5.390625 -6.234375 C 5.910156 -5.953125 6.316406 -5.554688 6.609375 -5.046875 C 6.910156 -4.535156 7.0625 -3.957031 7.0625 -3.3125 C 7.0625 -2.664062 6.910156 -2.082031 6.609375 -1.5625 C 6.304688 -1.050781 5.898438 -0.648438 5.390625 -0.359375 C 4.878906 -0.078125 4.3125 0.0625 3.6875 0.0625 Z M 3.6875 -1.390625 C 4.21875 -1.390625 4.640625 -1.566406 4.953125 -1.921875 C 5.265625 -2.273438 5.421875 -2.738281 5.421875 -3.3125 C 5.421875 -3.894531 5.265625 -4.359375 4.953125 -4.703125 C 4.640625 -5.046875 4.21875 -5.21875 3.6875 -5.21875 C 3.15625 -5.21875 2.734375 -5.046875 2.421875 -4.703125 C 2.109375 -4.359375 1.953125 -3.894531 1.953125 -3.3125 C 1.953125 -2.726562 2.109375 -2.257812 2.421875 -1.90625 C 2.734375 -1.5625 3.15625 -1.390625 3.6875 -1.390625 Z M 3.6875 -1.390625 "/></g></g></g><g fill="#111b1e" fill-opacity="1"><g transform="translate(168.742272, 115.6247)"><g><path d="M 4.703125 -6.578125 L 4.703125 -2.09375 C 4.703125 -1.40625 4.503906 -0.875 4.109375 -0.5 C 3.722656 -0.125 3.203125 0.0625 2.546875 0.0625 C 1.847656 0.0625 1.289062 -0.128906 0.875 -0.515625 C 0.457031 -0.910156 0.25 -1.472656 0.25 -2.203125 L 1.84375 -2.203125 C 1.84375 -1.929688 1.894531 -1.722656 2 -1.578125 C 2.113281 -1.441406 2.28125 -1.375 2.5 -1.375 C 2.6875 -1.375 2.832031 -1.4375 2.9375 -1.5625 C 3.050781 -1.6875 3.109375 -1.863281 3.109375 -2.09375 L 3.109375 -6.578125 Z M 4.703125 -6.578125 "/></g></g></g><g fill="#111b1e" fill-opacity="1"><g transform="translate(177.270869, 115.6247)"><g><path d="M 4.671875 -1.15625 L 2.21875 -1.15625 L 1.828125 0 L 0.15625 0 L 2.53125 -6.578125 L 4.390625 -6.578125 L 6.765625 0 L 5.078125 0 Z M 4.265625 -2.40625 L 3.453125 -4.8125 L 2.640625 -2.40625 Z M 4.265625 -2.40625 "/></g></g></g><g fill="#111b1e" fill-opacity="1"><g transform="translate(187.287223, 115.6247)"><g><path d="M 2.96875 0.0625 C 2.476562 0.0625 2.039062 -0.015625 1.65625 -0.171875 C 1.28125 -0.328125 0.976562 -0.554688 0.75 -0.859375 C 0.519531 -1.171875 0.398438 -1.539062 0.390625 -1.96875 L 2.09375 -1.96875 C 2.125 -1.726562 2.207031 -1.539062 2.34375 -1.40625 C 2.488281 -1.28125 2.679688 -1.21875 2.921875 -1.21875 C 3.148438 -1.21875 3.332031 -1.269531 3.46875 -1.375 C 3.613281 -1.488281 3.6875 -1.644531 3.6875 -1.84375 C 3.6875 -2 3.628906 -2.128906 3.515625 -2.234375 C 3.410156 -2.347656 3.273438 -2.4375 3.109375 -2.5 C 2.953125 -2.570312 2.726562 -2.648438 2.4375 -2.734375 C 2.007812 -2.867188 1.660156 -3 1.390625 -3.125 C 1.128906 -3.257812 0.898438 -3.453125 0.703125 -3.703125 C 0.503906 -3.960938 0.40625 -4.300781 0.40625 -4.71875 C 0.40625 -5.332031 0.628906 -5.8125 1.078125 -6.15625 C 1.523438 -6.5 2.101562 -6.671875 2.8125 -6.671875 C 3.539062 -6.671875 4.125 -6.5 4.5625 -6.15625 C 5.007812 -5.8125 5.25 -5.328125 5.28125 -4.703125 L 3.546875 -4.703125 C 3.535156 -4.921875 3.457031 -5.085938 3.3125 -5.203125 C 3.164062 -5.328125 2.976562 -5.390625 2.75 -5.390625 C 2.5625 -5.390625 2.40625 -5.335938 2.28125 -5.234375 C 2.164062 -5.128906 2.109375 -4.984375 2.109375 -4.796875 C 2.109375 -4.578125 2.207031 -4.40625 2.40625 -4.28125 C 2.601562 -4.164062 2.914062 -4.039062 3.34375 -3.90625 C 3.769531 -3.757812 4.113281 -3.617188 4.375 -3.484375 C 4.644531 -3.359375 4.875 -3.171875 5.0625 -2.921875 C 5.257812 -2.671875 5.359375 -2.347656 5.359375 -1.953125 C 5.359375 -1.578125 5.265625 -1.238281 5.078125 -0.9375 C 4.890625 -0.632812 4.613281 -0.390625 4.25 -0.203125 C 3.882812 -0.0234375 3.457031 0.0625 2.96875 0.0625 Z M 2.96875 0.0625 "/></g></g></g><g fill="#111b1e" fill-opacity="1"><g transform="translate(196.162037, 115.6247)"><g/></g></g><g fill="#111b1e" fill-opacity="1"><g transform="translate(201.265989, 115.6247)"><g><path d="M 2.1875 -5.296875 L 2.1875 -3.96875 L 4.328125 -3.96875 L 4.328125 -2.734375 L 2.1875 -2.734375 L 2.1875 -1.28125 L 4.609375 -1.28125 L 4.609375 0 L 0.578125 0 L 0.578125 -6.578125 L 4.609375 -6.578125 L 4.609375 -5.296875 Z M 2.1875 -5.296875 "/></g></g></g><g fill="#111b1e" fill-opacity="1"><g transform="translate(209.44838, 115.6247)"><g><path d="M 8.03125 -6.578125 L 8.03125 0 L 6.4375 0 L 6.4375 -3.953125 L 4.953125 0 L 3.671875 0 L 2.1875 -3.953125 L 2.1875 0 L 0.578125 0 L 0.578125 -6.578125 L 2.46875 -6.578125 L 4.328125 -2.03125 L 6.15625 -6.578125 Z M 8.03125 -6.578125 "/></g></g></g><g fill="#111b1e" fill-opacity="1"><g transform="translate(221.158347, 115.6247)"><g/></g></g><g fill="#111b1e" fill-opacity="1"><g transform="translate(226.262299, 115.6247)"><g><path d="M 2.15625 -6.578125 L 2.15625 -2.640625 C 2.15625 -2.242188 2.25 -1.941406 2.4375 -1.734375 C 2.632812 -1.523438 2.921875 -1.421875 3.296875 -1.421875 C 3.671875 -1.421875 3.957031 -1.523438 4.15625 -1.734375 C 4.363281 -1.941406 4.46875 -2.242188 4.46875 -2.640625 L 4.46875 -6.578125 L 6.0625 -6.578125 L 6.0625 -2.65625 C 6.0625 -2.0625 5.9375 -1.5625 5.6875 -1.15625 C 5.4375 -0.75 5.097656 -0.441406 4.671875 -0.234375 C 4.253906 -0.0351562 3.785156 0.0625 3.265625 0.0625 C 2.753906 0.0625 2.289062 -0.0351562 1.875 -0.234375 C 1.46875 -0.441406 1.144531 -0.75 0.90625 -1.15625 C 0.664062 -1.5625 0.546875 -2.0625 0.546875 -2.65625 L 0.546875 -6.578125 Z M 2.15625 -6.578125 "/></g></g></g><g fill="#111b1e" fill-opacity="1"><g transform="translate(235.979232, 115.6247)"><g><path d="M 8.03125 -6.578125 L 8.03125 0 L 6.4375 0 L 6.4375 -3.953125 L 4.953125 0 L 3.671875 0 L 2.1875 -3.953125 L 2.1875 0 L 0.578125 0 L 0.578125 -6.578125 L 2.46875 -6.578125 L 4.328125 -2.03125 L 6.15625 -6.578125 Z M 8.03125 -6.578125 "/></g></g></g><g fill="#111b1e" fill-opacity="1"><g transform="translate(247.689199, 115.6247)"><g/></g></g><g fill="#111b1e" fill-opacity="1"><g transform="translate(252.793151, 115.6247)"><g><path d="M 2.96875 0.0625 C 2.476562 0.0625 2.039062 -0.015625 1.65625 -0.171875 C 1.28125 -0.328125 0.976562 -0.554688 0.75 -0.859375 C 0.519531 -1.171875 0.398438 -1.539062 0.390625 -1.96875 L 2.09375 -1.96875 C 2.125 -1.726562 2.207031 -1.539062 2.34375 -1.40625 C 2.488281 -1.28125 2.679688 -1.21875 2.921875 -1.21875 C 3.148438 -1.21875 3.332031 -1.269531 3.46875 -1.375 C 3.613281 -1.488281 3.6875 -1.644531 3.6875 -1.84375 C 3.6875 -2 3.628906 -2.128906 3.515625 -2.234375 C 3.410156 -2.347656 3.273438 -2.4375 3.109375 -2.5 C 2.953125 -2.570312 2.726562 -2.648438 2.4375 -2.734375 C 2.007812 -2.867188 1.660156 -3 1.390625 -3.125 C 1.128906 -3.257812 0.898438 -3.453125 0.703125 -3.703125 C 0.503906 -3.960938 0.40625 -4.300781 0.40625 -4.71875 C 0.40625 -5.332031 0.628906 -5.8125 1.078125 -6.15625 C 1.523438 -6.5 2.101562 -6.671875 2.8125 -6.671875 C 3.539062 -6.671875 4.125 -6.5 4.5625 -6.15625 C 5.007812 -5.8125 5.25 -5.328125 5.28125 -4.703125 L 3.546875 -4.703125 C 3.535156 -4.921875 3.457031 -5.085938 3.3125 -5.203125 C 3.164062 -5.328125 2.976562 -5.390625 2.75 -5.390625 C 2.5625 -5.390625 2.40625 -5.335938 2.28125 -5.234375 C 2.164062 -5.128906 2.109375 -4.984375 2.109375 -4.796875 C 2.109375 -4.578125 2.207031 -4.40625 2.40625 -4.28125 C 2.601562 -4.164062 2.914062 -4.039062 3.34375 -3.90625 C 3.769531 -3.757812 4.113281 -3.617188 4.375 -3.484375 C 4.644531 -3.359375 4.875 -3.171875 5.0625 -2.921875 C 5.257812 -2.671875 5.359375 -2.347656 5.359375 -1.953125 C 5.359375 -1.578125 5.265625 -1.238281 5.078125 -0.9375 C 4.890625 -0.632812 4.613281 -0.390625 4.25 -0.203125 C 3.882812 -0.0234375 3.457031 0.0625 2.96875 0.0625 Z M 2.96875 0.0625 "/></g></g></g><g fill="#111b1e" fill-opacity="1"><g transform="translate(261.667977, 115.6247)"><g><path d="M 3.6875 0.0625 C 3.070312 0.0625 2.503906 -0.078125 1.984375 -0.359375 C 1.472656 -0.648438 1.066406 -1.050781 0.765625 -1.5625 C 0.460938 -2.082031 0.3125 -2.664062 0.3125 -3.3125 C 0.3125 -3.957031 0.460938 -4.535156 0.765625 -5.046875 C 1.066406 -5.554688 1.472656 -5.953125 1.984375 -6.234375 C 2.503906 -6.523438 3.070312 -6.671875 3.6875 -6.671875 C 4.3125 -6.671875 4.878906 -6.523438 5.390625 -6.234375 C 5.910156 -5.953125 6.316406 -5.554688 6.609375 -5.046875 C 6.910156 -4.535156 7.0625 -3.957031 7.0625 -3.3125 C 7.0625 -2.664062 6.910156 -2.082031 6.609375 -1.5625 C 6.304688 -1.050781 5.898438 -0.648438 5.390625 -0.359375 C 4.878906 -0.078125 4.3125 0.0625 3.6875 0.0625 Z M 3.6875 -1.390625 C 4.21875 -1.390625 4.640625 -1.566406 4.953125 -1.921875 C 5.265625 -2.273438 5.421875 -2.738281 5.421875 -3.3125 C 5.421875 -3.894531 5.265625 -4.359375 4.953125 -4.703125 C 4.640625 -5.046875 4.21875 -5.21875 3.6875 -5.21875 C 3.15625 -5.21875 2.734375 -5.046875 2.421875 -4.703125 C 2.109375 -4.359375 1.953125 -3.894531 1.953125 -3.3125 C 1.953125 -2.726562 2.109375 -2.257812 2.421875 -1.90625 C 2.734375 -1.5625 3.15625 -1.390625 3.6875 -1.390625 Z M 4.78125 -7.90625 L 2.515625 -6.96875 L 2.515625 -8.0625 L 4.78125 -9.15625 Z M 4.78125 -7.90625 "/></g></g></g><g fill="#111b1e" fill-opacity="1"><g transform="translate(272.142825, 115.6247)"><g/></g></g><g fill="#111b1e" fill-opacity="1"><g transform="translate(277.246777, 115.6247)"><g><path d="M 4.671875 -1.15625 L 2.21875 -1.15625 L 1.828125 0 L 0.15625 0 L 2.53125 -6.578125 L 4.390625 -6.578125 L 6.765625 0 L 5.078125 0 Z M 4.265625 -2.40625 L 3.453125 -4.8125 L 2.640625 -2.40625 Z M 4.265625 -2.40625 "/></g></g></g><g fill="#111b1e" fill-opacity="1"><g transform="translate(287.263143, 115.6247)"><g><path d="M 5.59375 -4.46875 C 5.59375 -4.082031 5.503906 -3.726562 5.328125 -3.40625 C 5.160156 -3.09375 4.894531 -2.835938 4.53125 -2.640625 C 4.164062 -2.453125 3.710938 -2.359375 3.171875 -2.359375 L 2.1875 -2.359375 L 2.1875 0 L 0.578125 0 L 0.578125 -6.578125 L 3.171875 -6.578125 C 3.703125 -6.578125 4.144531 -6.484375 4.5 -6.296875 C 4.863281 -6.117188 5.132812 -5.867188 5.3125 -5.546875 C 5.5 -5.234375 5.59375 -4.875 5.59375 -4.46875 Z M 3.0625 -3.640625 C 3.363281 -3.640625 3.585938 -3.707031 3.734375 -3.84375 C 3.890625 -3.988281 3.96875 -4.195312 3.96875 -4.46875 C 3.96875 -4.726562 3.890625 -4.925781 3.734375 -5.0625 C 3.585938 -5.207031 3.363281 -5.28125 3.0625 -5.28125 L 2.1875 -5.28125 L 2.1875 -3.640625 Z M 3.0625 -3.640625 "/></g></g></g><g fill="#111b1e" fill-opacity="1"><g transform="translate(296.222182, 115.6247)"><g><path d="M 5.59375 -4.46875 C 5.59375 -4.082031 5.503906 -3.726562 5.328125 -3.40625 C 5.160156 -3.09375 4.894531 -2.835938 4.53125 -2.640625 C 4.164062 -2.453125 3.710938 -2.359375 3.171875 -2.359375 L 2.1875 -2.359375 L 2.1875 0 L 0.578125 0 L 0.578125 -6.578125 L 3.171875 -6.578125 C 3.703125 -6.578125 4.144531 -6.484375 4.5 -6.296875 C 4.863281 -6.117188 5.132812 -5.867188 5.3125 -5.546875 C 5.5 -5.234375 5.59375 -4.875 5.59375 -4.46875 Z M 3.0625 -3.640625 C 3.363281 -3.640625 3.585938 -3.707031 3.734375 -3.84375 C 3.890625 -3.988281 3.96875 -4.195312 3.96875 -4.46875 C 3.96875 -4.726562 3.890625 -4.925781 3.734375 -5.0625 C 3.585938 -5.207031 3.363281 -5.28125 3.0625 -5.28125 L 2.1875 -5.28125 L 2.1875 -3.640625 Z M 3.0625 -3.640625 "/></g></g></g></svg>